<svg width="184" height="88" viewBox="0 0 184 88" fill="none" xmlns="http://www.w3.org/2000/svg">
<path d="M22.6758 34.9531L11.6719 77H0.808594L16.8047 25.8125H23.5898L22.6758 34.9531ZM31.3594 77L20.2852 34.9531L19.2656 25.8125H26.1562L42.293 77H31.3594ZM31.7461 57.9102V66.4531H8.64844V57.9102H31.7461ZM56.5312 47.4336V77H46.6875V38.9609H55.9688L56.5312 47.4336ZM65.4961 38.6797L65.3555 48.4883C64.9102 48.3945 64.3711 48.3242 63.7383 48.2773C63.1289 48.2305 62.5898 48.207 62.1211 48.207C61.0195 48.207 60.082 48.3828 59.3086 48.7344C58.5352 49.0625 57.8906 49.5664 57.375 50.2461C56.8828 50.9023 56.5078 51.7227 56.25 52.707C55.9922 53.6914 55.8398 54.8047 55.793 56.0469L53.9297 55.3438C53.9297 52.8594 54.1172 50.5859 54.4922 48.5234C54.8906 46.4375 55.4766 44.6328 56.25 43.1094C57.0234 41.5625 57.9492 40.3672 59.0273 39.5234C60.1289 38.6797 61.3711 38.2578 62.7539 38.2578C63.2227 38.2578 63.7148 38.3047 64.2305 38.3984C64.7695 38.4688 65.1914 38.5625 65.4961 38.6797ZM88.875 38.9609V46.3789H69.4688V38.9609H88.875ZM73.9336 29.5742H83.7422V65.3984C83.7422 66.4531 83.8477 67.2617 84.0586 67.8242C84.2695 68.3867 84.5859 68.7852 85.0078 69.0195C85.4531 69.2305 86.0273 69.3359 86.7305 69.3359C87.2461 69.3359 87.7148 69.3125 88.1367 69.2656C88.5586 69.1953 88.875 69.125 89.0859 69.0547V76.7539C88.3125 77.0586 87.4922 77.293 86.625 77.457C85.7812 77.6211 84.7734 77.7031 83.6016 77.7031C81.6562 77.7031 79.957 77.3281 78.5039 76.5781C77.0508 75.8281 75.9258 74.6328 75.1289 72.9922C74.332 71.3281 73.9336 69.1484 73.9336 66.4531V29.5742Z" fill="#428E9E"/>
<path d="M114.836 15.8125V67H104.605V15.8125H114.836ZM133.926 15.8125V67H123.625V15.8125H133.926ZM149.957 37.5742V46.082H131.324V37.5742H149.957ZM151.926 15.8125V24.3555H131.324V15.8125H151.926Z" fill="#FF4444"/>
</svg>
